<svg version="1.1" id="Layer_1" xmlns="http://www.w3.org/2000/svg" xmlns:xlink="http://www.w3.org/1999/xlink" x="0px" y="0px"
	 width="100%" viewBox="0 0 700 700" enable-background="new 0 0 700 700" xml:space="preserve">
<path fill="#3F4FA2" opacity="1.000000" stroke="none" 
	d="
M314.000000,1.000004 
	C338.354218,1.000000 362.708466,1.000000 387.453369,1.420097 
	C388.852539,2.224899 389.831390,2.805698 390.874146,2.963321 
	C399.314178,4.239087 407.811890,5.183662 416.205566,6.705724 
	C436.918243,10.461622 457.055237,16.261221 476.726135,23.821596 
	C496.123962,31.276985 514.746216,40.257858 532.489624,51.028435 
	C550.384277,61.890820 567.180420,74.223961 582.854187,88.179405 
	C599.113159,102.655937 614.325317,118.129654 627.561646,135.332794 
	C646.262512,159.638260 661.904297,185.833542 673.751709,214.261948 
	C686.776123,245.514832 695.631836,277.775574 699.085510,311.492249 
	C699.176941,312.384186 700.337830,313.166565 701.000000,314.000000 
	C701.000000,338.354218 701.000000,362.708466 700.580078,387.447174 
	C699.775330,388.841064 699.194458,389.820892 699.036804,390.864624 
	C697.761902,399.305908 696.793030,407.799469 695.302002,416.200958 
	C691.593262,437.098572 686.179871,457.605347 677.901978,477.132111 
	C670.726196,494.058899 663.070862,510.884949 654.186218,526.958862 
	C643.045776,547.113892 629.284485,565.570496 613.868225,582.814819 
	C599.344971,599.060242 583.851013,614.270630 566.666443,627.566040 
	C542.412537,646.330872 516.213867,661.921570 487.777374,673.740906 
	C456.501343,686.740356 424.256439,695.676208 390.516785,699.085388 
	C389.622498,699.175781 388.836487,700.337769 388.000000,701.000000 
	C363.645782,701.000000 339.291534,701.000000 314.552612,700.580078 
	C313.491638,699.785156 312.849640,699.176453 312.133759,699.071411 
	C304.990906,698.023560 297.816559,697.180603 290.687561,696.049683 
	C257.497345,690.784546 225.979279,680.222778 195.913132,665.380615 
	C168.218918,651.709412 142.669510,634.807739 119.547653,614.190552 
	C103.175972,599.592346 87.844193,584.013123 74.457840,566.712158 
	C55.677502,542.439819 40.101360,516.201416 28.258335,487.758606 
	C15.242713,456.499542 6.312760,424.256897 2.914464,390.522308 
	C2.824209,389.626343 1.662211,388.838348 1.000005,388.000000 
	C1.000000,363.645782 1.000000,339.291534 1.419976,314.552338 
	C2.225634,312.991760 2.793500,311.842499 2.967571,310.636353 
	C4.140086,302.512207 4.832983,294.297668 6.422196,286.258911 
	C10.561780,265.319580 15.638927,244.554230 24.072332,224.904572 
	C31.322956,208.010788 38.886673,191.150772 47.777290,175.086838 
	C58.937843,154.921509 72.710594,136.443924 88.138176,119.183479 
	C102.645653,102.952469 118.143684,87.790657 135.298996,74.479309 
	C159.556152,55.657440 185.814621,40.125332 214.244293,28.262665 
	C245.497635,15.221778 277.764557,6.360840 311.490112,2.914508 
	C312.382660,2.823301 313.165833,1.662183 314.000000,1.000004 
M288.871613,168.011658 
	C288.871613,168.011658 288.960114,167.955826 288.158295,167.669342 
	C285.582733,167.993942 283.007141,168.318542 279.989288,168.698898 
	C282.654572,158.121307 285.218781,147.944809 288.179871,136.193314 
	C282.305969,138.543243 277.332794,139.876999 273.033203,142.371674 
	C258.066132,151.055756 247.632751,164.011108 239.004852,178.963730 
	C237.417328,176.391632 235.492310,173.963806 234.317474,171.215317 
	C232.307587,166.513184 230.767456,161.610245 229.030045,156.791641 
	C228.239609,156.911545 227.449158,157.031464 226.658722,157.151382 
	C226.658722,163.294739 226.658722,169.438095 225.972382,175.300018 
	C225.210373,174.968506 224.460907,174.603836 223.684479,174.310486 
	C214.195419,170.725296 204.473404,165.748657 194.329132,169.176910 
	C185.681091,172.099548 177.128784,176.506454 169.820358,181.975525 
	C143.915527,201.360748 122.909256,225.892075 101.558388,249.902924 
	C85.586380,267.864807 75.777962,289.759521 65.862114,311.418579 
	C65.359573,312.516296 65.238907,314.004089 65.486725,315.196747 
	C67.911461,326.866272 82.250885,339.782959 93.881714,341.102325 
	C97.872360,341.555023 100.043015,340.751678 101.359711,336.280548 
	C105.039635,323.784485 111.651451,312.713287 119.686714,302.409821 
	C119.276390,307.251984 118.302460,311.907776 117.552269,316.599335 
	C115.846718,327.265625 113.537659,337.942688 116.074699,348.766693 
	C116.512314,350.633759 117.771057,352.975555 119.335487,353.803101 
	C129.566681,359.214996 140.671402,360.952057 152.147232,360.728577 
	C155.434570,360.664551 156.743530,358.979614 156.887070,355.738708 
	C157.105103,350.815643 157.665833,345.907776 158.081009,340.993439 
	C158.472626,340.904755 158.864243,340.816071 159.255859,340.727386 
	C160.471924,344.737640 161.535187,348.803925 162.974838,352.732239 
	C163.602066,354.443634 164.649155,356.479370 166.109573,357.326660 
	C173.453171,361.586914 181.402115,363.719635 189.989471,362.949158 
	C198.528503,362.183044 199.640854,360.794983 198.420120,352.369904 
	C198.283371,351.426117 198.305466,350.459290 198.322830,350.781128 
	C204.927856,347.038147 210.896378,343.905731 216.554977,340.288483 
	C218.138870,339.275970 219.502731,336.930847 219.766281,335.030426 
	C220.496063,329.767853 220.737778,324.422119 220.910538,319.100769 
	C221.343018,305.779816 221.185516,292.421600 222.157623,279.143677 
	C222.671677,272.122406 224.769669,265.159058 226.681519,258.317383 
	C228.082809,253.302780 232.825394,252.223465 237.248108,251.098618 
	C241.047409,250.132324 243.144577,252.051483 245.472641,254.861450 
	C247.614136,257.446289 251.039719,261.289581 254.428253,256.849213 
	C258.310150,251.762344 262.371185,252.781418 267.095154,254.580231 
	C284.819824,261.329437 299.671234,272.473297 313.675842,284.917206 
	C314.119843,285.311737 314.234924,286.076477 314.048645,287.317139 
	C304.838226,307.611298 303.791138,328.755035 307.608978,350.365662 
	C308.532257,355.591675 309.837250,360.750214 310.562317,366.485229 
	C295.141876,386.739685 300.733490,405.114960 316.616302,422.374969 
	C315.280121,422.766846 314.941925,422.984314 314.665192,422.923309 
	C314.030762,422.783447 313.395660,422.568970 312.814301,422.277954 
	C302.719116,417.225525 292.782745,411.679901 280.770782,413.494354 
	C279.372864,413.705505 277.836090,413.019928 276.366974,412.733185 
	C270.621124,411.611694 265.914001,413.483215 262.007446,417.690521 
	C261.227386,418.530548 260.548584,419.548950 259.606781,420.140991 
	C252.447006,424.641754 248.546890,436.480835 252.318802,443.995667 
	C253.220856,445.792816 255.954468,447.539856 258.002930,447.745728 
	C268.249634,448.775665 278.552002,449.238983 288.828522,449.988129 
	C304.878906,451.158203 320.454651,453.936707 334.299225,462.979462 
	C337.185425,464.864594 340.500275,466.177216 343.749512,467.404541 
	C349.723755,469.661255 353.508209,468.337372 356.484039,462.672150 
	C358.938629,457.999298 360.208160,453.301727 356.451355,448.236572 
	C354.133606,445.111694 352.657471,441.218018 351.434296,437.463989 
	C350.040314,433.185669 349.603546,428.701294 352.627991,424.123962 
	C354.313141,432.353851 358.218384,437.197845 367.091797,437.331299 
	C371.596375,437.399109 376.043884,439.599976 380.566833,440.615326 
	C384.423798,441.481171 385.438141,443.742310 385.100281,447.470459 
	C382.798553,472.866028 373.910400,495.565674 357.384399,515.070618 
	C336.619934,539.578247 309.702057,552.070923 278.028900,554.176147 
	C277.662964,545.385315 277.409241,536.587708 276.875153,527.807129 
	C276.664642,524.346191 275.973450,520.890015 275.195007,517.502014 
	C274.938843,516.387085 273.630890,514.621521 272.960815,514.690002 
	C271.768921,514.811707 270.105774,515.868042 269.672455,516.947937 
	C267.263428,522.951172 265.127502,529.065918 262.975372,535.169678 
	C261.796295,538.513672 260.769318,541.911255 259.228821,546.654663 
	C254.754227,539.999451 251.238037,534.615234 247.560440,529.343506 
	C243.894714,524.088867 240.928635,518.210266 235.047318,514.515137 
	C234.631439,527.658813 238.764114,539.689270 241.224091,551.960510 
	C233.606201,550.071472 225.988327,548.182495 218.033569,546.209900 
	C220.515121,552.099487 223.862671,556.160278 231.116867,560.074829 
	C259.915253,575.615234 290.630341,581.888123 322.624237,574.100830 
	C362.347137,564.432373 393.557617,540.507019 419.803680,510.073151 
	C446.181366,479.486603 459.694916,442.997833 465.958221,403.534302 
	C466.426086,400.586365 467.151733,397.567078 466.932953,394.642670 
	C466.142761,384.080750 464.999939,373.545166 464.685364,363.137146 
	C467.767975,365.047089 470.707703,367.284119 473.997009,368.720947 
	C475.507996,369.380951 477.704773,368.471039 479.590546,368.273041 
	C478.808350,362.507843 480.003052,354.899139 476.763641,351.425293 
	C472.311188,346.650604 464.501831,345.006256 457.799347,341.363922 
	C456.538818,337.908234 455.278290,334.452515 454.726227,331.167847 
	C460.456787,333.600189 466.187378,336.032532 473.670563,339.208771 
	C473.289886,331.931549 473.149750,325.942200 472.529358,320.003052 
	C472.394623,318.713318 470.734314,316.878174 469.442322,316.528107 
	C460.841095,314.197632 452.149078,312.202362 443.047607,309.646698 
	C442.042908,307.760406 441.038177,305.874115 440.940796,303.986664 
	C446.882660,304.603271 452.842743,305.082214 458.762268,305.867249 
	C468.799316,307.198395 468.788574,307.279602 470.440338,297.254150 
	C472.485229,284.842590 468.356445,280.415039 455.816376,282.237457 
	C447.114288,283.502106 438.506683,285.416656 429.259857,286.652100 
	C427.144196,284.220276 427.708954,282.157471 430.122528,280.342377 
	C432.645477,278.445129 434.934265,276.065186 437.722931,274.721008 
	C453.269836,267.227203 468.853760,259.796967 484.604309,252.745407 
	C491.012695,249.876328 497.872742,248.015930 505.745575,245.271988 
	C504.680603,248.246323 504.079895,249.890839 503.502075,251.543365 
	C500.926941,258.908447 498.023560,266.183228 495.947937,273.686829 
	C495.085785,276.803467 495.195618,280.684753 496.243958,283.745544 
	C500.126740,295.082031 507.718842,303.920013 516.871033,311.385162 
	C518.761536,312.927216 521.575378,313.337372 524.961914,314.658783 
	C522.708618,324.667694 520.082275,336.113281 517.597839,347.589539 
	C517.191284,349.467651 516.839294,351.678589 517.434631,353.399261 
	C520.735596,362.940338 536.706543,373.878265 546.741272,374.096832 
	C548.564392,374.136566 550.527954,375.335663 552.132385,376.430756 
	C557.712524,380.239532 562.936462,384.635315 568.774780,387.969025 
	C571.115417,389.305511 574.699524,388.464417 578.157959,388.636383 
	C583.384460,390.722626 589.272583,393.244812 595.287659,395.414856 
	C599.450623,396.916687 603.051636,396.311218 605.099670,391.613586 
	C605.867798,389.851624 607.297974,388.378204 608.471252,386.709320 
	C615.360840,389.653168 622.129089,389.743103 628.752563,387.480835 
	C630.463806,386.896393 632.604370,384.577515 632.765381,382.885773 
	C636.350037,345.210236 634.805786,307.746979 626.868103,270.690857 
	C623.528748,255.101486 619.975708,239.449844 610.130066,226.270844 
	C591.265442,201.019333 567.311157,181.734421 539.702393,166.885147 
	C536.999390,165.431335 533.146851,164.797943 530.174133,165.425018 
	C523.062134,166.925232 515.963928,168.916214 509.204803,171.582550 
	C490.557404,178.938568 474.933807,191.196640 459.173157,203.224258 
	C451.002136,209.459915 442.477509,215.232224 433.732239,220.630035 
	C431.633026,218.065079 429.535767,215.498505 427.434082,212.935577 
	C424.239777,209.040222 420.498596,208.373444 416.644928,211.686584 
	C413.782074,214.147873 410.888519,216.789993 408.794434,219.883469 
	C404.561096,226.137131 400.861908,232.752335 396.658295,239.794800 
	C394.676666,241.522034 392.695007,243.249283 390.738434,244.954681 
	C383.996063,233.440399 377.787201,222.052612 370.842407,211.132828 
	C353.885773,184.470688 331.511841,166.251083 298.180847,165.381210 
	C298.709869,163.052704 299.238892,160.724197 299.767883,158.395706 
	C299.401825,158.175720 299.035797,157.955734 298.669739,157.735748 
	C295.726074,160.917938 292.782379,164.100113 289.431427,167.419205 
	C289.189758,167.591827 289.021637,167.818909 288.871613,168.011658 
z"/>
<path fill="#000000" opacity="1.000000" stroke="none" 
	d="
M701.000000,313.531342 
	C700.337830,313.166565 699.176941,312.384186 699.085510,311.492249 
	C695.631836,277.775574 686.776123,245.514832 673.751709,214.261948 
	C661.904297,185.833542 646.262512,159.638260 627.561646,135.332794 
	C614.325317,118.129654 599.113159,102.655937 582.854187,88.179405 
	C567.180420,74.223961 550.384277,61.890820 532.489624,51.028435 
	C514.746216,40.257858 496.123962,31.276985 476.726135,23.821596 
	C457.055237,16.261221 436.918243,10.461622 416.205566,6.705724 
	C407.811890,5.183662 399.314178,4.239087 390.874146,2.963321 
	C389.831390,2.805698 388.852539,2.224899 387.922058,1.420097 
	C492.260376,1.000000 596.520752,1.000000 701.000000,1.000000 
	C701.000000,105.020790 701.000000,209.041733 701.000000,313.531342 
z"/>
<path fill="#000000" opacity="1.000000" stroke="none" 
	d="
M1.000005,388.468658 
	C1.662211,388.838348 2.824209,389.626343 2.914464,390.522308 
	C6.312760,424.256897 15.242713,456.499542 28.258335,487.758606 
	C40.101360,516.201416 55.677502,542.439819 74.457840,566.712158 
	C87.844193,584.013123 103.175972,599.592346 119.547653,614.190552 
	C142.669510,634.807739 168.218918,651.709412 195.913132,665.380615 
	C225.979279,680.222778 257.497345,690.784546 290.687561,696.049683 
	C297.816559,697.180603 304.990906,698.023560 312.133759,699.071411 
	C312.849640,699.176453 313.491638,699.785156 314.083984,700.580078 
	C209.739594,701.000000 105.479202,701.000000 1.000000,701.000000 
	C1.000000,596.979187 1.000000,492.958252 1.000005,388.468658 
z"/>
<path fill="#000000" opacity="1.000000" stroke="none" 
	d="
M313.531342,1.000004 
	C313.165833,1.662183 312.382660,2.823301 311.490112,2.914508 
	C277.764557,6.360840 245.497635,15.221778 214.244293,28.262665 
	C185.814621,40.125332 159.556152,55.657440 135.298996,74.479309 
	C118.143684,87.790657 102.645653,102.952469 88.138176,119.183479 
	C72.710594,136.443924 58.937843,154.921509 47.777290,175.086838 
	C38.886673,191.150772 31.322956,208.010788 24.072332,224.904572 
	C15.638927,244.554230 10.561780,265.319580 6.422196,286.258911 
	C4.832983,294.297668 4.140086,302.512207 2.967571,310.636353 
	C2.793500,311.842499 2.225634,312.991760 1.419976,314.083679 
	C1.000000,209.739594 1.000000,105.479202 1.000000,1.000000 
	C105.020790,1.000000 209.041733,1.000000 313.531342,1.000004 
z"/>
<path fill="#000000" opacity="1.000000" stroke="none" 
	d="
M388.468658,701.000000 
	C388.836487,700.337769 389.622498,699.175781 390.516785,699.085388 
	C424.256439,695.676208 456.501343,686.740356 487.777374,673.740906 
	C516.213867,661.921570 542.412537,646.330872 566.666443,627.566040 
	C583.851013,614.270630 599.344971,599.060242 613.868225,582.814819 
	C629.284485,565.570496 643.045776,547.113892 654.186218,526.958862 
	C663.070862,510.884949 670.726196,494.058899 677.901978,477.132111 
	C686.179871,457.605347 691.593262,437.098572 695.302002,416.200958 
	C696.793030,407.799469 697.761902,399.305908 699.036804,390.864624 
	C699.194458,389.820892 699.775330,388.841064 700.580078,387.915833 
	C701.000000,492.260406 701.000000,596.520813 701.000000,701.000000 
	C596.979187,701.000000 492.958252,701.000000 388.468658,701.000000 
z"/>
<path fill="#E3E3F0" opacity="1.000000" stroke="none" 
	d="
M314.503357,286.668640 
	C314.234924,286.076477 314.119843,285.311737 313.675842,284.917206 
	C299.671234,272.473297 284.819824,261.329437 267.095154,254.580231 
	C262.371185,252.781418 258.310150,251.762344 254.428253,256.849213 
	C251.039719,261.289581 247.614136,257.446289 245.472641,254.861450 
	C243.144577,252.051483 241.047409,250.132324 237.248108,251.098618 
	C232.825394,252.223465 228.082809,253.302780 226.681519,258.317383 
	C224.769669,265.159058 222.671677,272.122406 222.157623,279.143677 
	C221.185516,292.421600 221.343018,305.779816 220.910538,319.100769 
	C220.737778,324.422119 220.496063,329.767853 219.766281,335.030426 
	C219.502731,336.930847 218.138870,339.275970 216.554977,340.288483 
	C210.896378,343.905731 204.927856,347.038147 198.322830,350.781128 
	C198.305466,350.459290 198.283371,351.426117 198.420120,352.369904 
	C199.640854,360.794983 198.528503,362.183044 189.989471,362.949158 
	C181.402115,363.719635 173.453171,361.586914 166.109573,357.326660 
	C164.649155,356.479370 163.602066,354.443634 162.974838,352.732239 
	C161.535187,348.803925 160.471924,344.737640 159.255859,340.727386 
	C158.864243,340.816071 158.472626,340.904755 158.081009,340.993439 
	C157.665833,345.907776 157.105103,350.815643 156.887070,355.738708 
	C156.743530,358.979614 155.434570,360.664551 152.147232,360.728577 
	C140.671402,360.952057 129.566681,359.214996 119.335487,353.803101 
	C117.771057,352.975555 116.512314,350.633759 116.074699,348.766693 
	C113.537659,337.942688 115.846718,327.265625 117.552269,316.599335 
	C118.302460,311.907776 119.276390,307.251984 119.686714,302.409821 
	C111.651451,312.713287 105.039635,323.784485 101.359711,336.280548 
	C100.043015,340.751678 97.872360,341.555023 93.881714,341.102325 
	C82.250885,339.782959 67.911461,326.866272 65.486725,315.196747 
	C65.238907,314.004089 65.359573,312.516296 65.862114,311.418579 
	C75.777962,289.759521 85.586380,267.864807 101.558388,249.902924 
	C122.909256,225.892075 143.915527,201.360748 169.820358,181.975525 
	C177.128784,176.506454 185.681091,172.099548 194.329132,169.176910 
	C204.473404,165.748657 214.195419,170.725296 223.684479,174.310486 
	C224.460907,174.603836 225.210373,174.968506 226.399017,175.861649 
	C227.684738,187.407043 228.543808,198.390793 229.374847,209.016129 
	C232.883194,198.941132 236.321030,189.068665 239.758850,179.196198 
	C247.632751,164.011108 258.066132,151.055756 273.033203,142.371674 
	C277.332794,139.876999 282.305969,138.543243 288.179871,136.193314 
	C285.218781,147.944809 282.654572,158.121307 279.989288,168.698898 
	C283.007141,168.318542 285.582733,167.993942 288.493011,168.143799 
	C284.124817,174.663452 279.580414,180.840805 274.678680,186.720215 
	C268.629486,193.976013 263.892548,201.522110 263.354187,211.466187 
	C262.932709,219.251587 261.130493,226.962234 259.776001,235.785858 
	C269.081390,226.645905 277.508667,218.438782 285.810089,210.106262 
	C286.643280,209.269943 286.782196,207.691971 287.126678,206.426453 
	C290.782532,192.996964 294.414673,179.561035 298.053345,166.126877 
	C331.511841,166.251083 353.885773,184.470688 370.842407,211.132828 
	C377.787201,222.052612 383.996063,233.440399 390.738434,244.954681 
	C392.695007,243.249283 394.676666,241.522034 397.152039,239.389725 
	C409.801392,233.061050 421.957001,227.137466 434.112640,221.213867 
	C442.477509,215.232224 451.002136,209.459915 459.173157,203.224258 
	C474.933807,191.196640 490.557404,178.938568 509.204803,171.582550 
	C515.963928,168.916214 523.062134,166.925232 530.174133,165.425018 
	C533.146851,164.797943 536.999390,165.431335 539.702393,166.885147 
	C567.311157,181.734421 591.265442,201.019333 610.130066,226.270844 
	C619.975708,239.449844 623.528748,255.101486 626.868103,270.690857 
	C634.805786,307.746979 636.350037,345.210236 632.765381,382.885773 
	C632.604370,384.577515 630.463806,386.896393 628.752563,387.480835 
	C622.129089,389.743103 615.360840,389.653168 608.471252,386.709320 
	C607.297974,388.378204 605.867798,389.851624 605.099670,391.613586 
	C603.051636,396.311218 599.450623,396.916687 595.287659,395.414856 
	C589.272583,393.244812 583.384460,390.722626 578.157959,388.636383 
	C574.699524,388.464417 571.115417,389.305511 568.774780,387.969025 
	C562.936462,384.635315 557.712524,380.239532 552.132385,376.430756 
	C550.527954,375.335663 548.564392,374.136566 546.741272,374.096832 
	C536.706543,373.878265 520.735596,362.940338 517.434631,353.399261 
	C516.839294,351.678589 517.191284,349.467651 517.597839,347.589539 
	C520.082275,336.113281 522.708618,324.667694 524.961914,314.658783 
	C521.575378,313.337372 518.761536,312.927216 516.871033,311.385162 
	C507.718842,303.920013 500.126740,295.082031 496.243958,283.745544 
	C495.195618,280.684753 495.085785,276.803467 495.947937,273.686829 
	C498.023560,266.183228 500.926941,258.908447 503.502075,251.543365 
	C504.079895,249.890839 504.680603,248.246323 505.745575,245.271988 
	C497.872742,248.015930 491.012695,249.876328 484.604309,252.745407 
	C468.853760,259.796967 453.269836,267.227203 437.722931,274.721008 
	C434.934265,276.065186 432.645477,278.445129 430.122528,280.342377 
	C427.708954,282.157471 427.144196,284.220276 429.624512,287.194519 
	C433.337311,293.153870 436.685394,298.570831 440.033447,303.987793 
	C441.038177,305.874115 442.042908,307.760406 443.394348,310.219421 
	C447.166626,317.527069 450.592194,324.261932 454.017761,330.996826 
	C455.278290,334.452515 456.538818,337.908234 457.972961,342.068359 
	C460.094482,349.515076 462.042358,356.257355 463.990234,362.999664 
	C464.999939,373.545166 466.142761,384.080750 466.932953,394.642670 
	C467.151733,397.567078 466.426086,400.586365 465.958221,403.534302 
	C459.694916,442.997833 446.181366,479.486603 419.803680,510.073151 
	C393.557617,540.507019 362.347137,564.432373 322.624237,574.100830 
	C290.630341,581.888123 259.915253,575.615234 231.116867,560.074829 
	C223.862671,556.160278 220.515121,552.099487 218.033569,546.209900 
	C225.988327,548.182495 233.606201,550.071472 241.999207,552.048096 
	C247.409225,553.046997 252.044128,553.958374 255.656647,554.668701 
	C256.077698,558.035217 255.386322,561.927795 256.959808,563.400452 
	C262.699463,568.772400 269.890442,570.828491 278.061218,569.758179 
	C278.061218,564.669189 278.061218,559.897644 278.061218,555.126099 
	C309.702057,552.070923 336.619934,539.578247 357.384399,515.070618 
	C373.910400,495.565674 382.798553,472.866028 385.100281,447.470459 
	C385.438141,443.742310 384.423798,441.481171 380.566833,440.615326 
	C376.043884,439.599976 371.596375,437.399109 367.091797,437.331299 
	C358.218384,437.197845 354.313141,432.353851 352.627991,424.123962 
	C349.603546,428.701294 350.040314,433.185669 351.434296,437.463989 
	C352.657471,441.218018 354.133606,445.111694 356.451355,448.236572 
	C360.208160,453.301727 358.938629,457.999298 356.484039,462.672150 
	C353.508209,468.337372 349.723755,469.661255 343.749512,467.404541 
	C340.500275,466.177216 337.185425,464.864594 334.299225,462.979462 
	C320.454651,453.936707 304.878906,451.158203 288.828522,449.988129 
	C278.552002,449.238983 268.249634,448.775665 258.002930,447.745728 
	C255.954468,447.539856 253.220856,445.792816 252.318802,443.995667 
	C248.546890,436.480835 252.447006,424.641754 259.606781,420.140991 
	C260.548584,419.548950 261.227386,418.530548 262.007446,417.690521 
	C265.914001,413.483215 270.621124,411.611694 276.366974,412.733185 
	C277.836090,413.019928 279.372864,413.705505 280.770782,413.494354 
	C292.782745,411.679901 302.719116,417.225525 312.814301,422.277954 
	C313.395660,422.568970 314.030762,422.783447 314.665192,422.923309 
	C314.941925,422.984314 315.280121,422.766846 316.616302,422.374969 
	C300.733490,405.114960 295.141876,386.739685 311.071686,366.380798 
	C319.445923,383.582947 331.417786,397.275604 347.669495,407.170349 
	C351.698334,409.623260 355.614441,412.940582 360.721954,409.165222 
	C361.499786,408.590240 363.067627,409.214874 364.131592,408.864288 
	C365.575714,408.388458 366.864410,407.460388 368.258759,406.809875 
	C371.107178,405.480896 373.916595,403.300415 376.858185,403.089478 
	C384.323669,402.554108 391.853210,402.911621 399.872894,402.911621 
	C389.020020,380.212646 391.041382,368.610992 407.762634,350.524139 
	C409.092529,349.085632 409.346252,345.513824 408.606323,343.475708 
	C400.968781,322.438293 388.462036,304.614075 372.121704,289.396179 
	C370.150787,287.560608 368.509460,287.509796 366.534332,289.294739 
	C362.954559,292.529877 359.314148,295.700439 355.636047,298.823730 
	C349.081879,304.389221 342.480804,309.899475 334.836304,316.326599 
	C327.748566,305.988342 321.125946,296.328491 314.503357,286.668640 
M332.015686,245.159424 
	C330.868896,239.385315 330.703400,233.174332 328.368347,227.929230 
	C323.696136,217.434174 315.797913,209.991684 303.696533,208.699722 
	C299.202332,208.219894 294.768463,208.823395 292.589905,213.880737 
	C305.684753,224.501465 318.555237,234.940186 332.015686,245.159424 
z"/>
<path fill="#7E8FC3" opacity="1.000000" stroke="none" 
	d="
M314.276001,286.992889 
	C321.125946,296.328491 327.748566,305.988342 334.836304,316.326599 
	C342.480804,309.899475 349.081879,304.389221 355.636047,298.823730 
	C359.314148,295.700439 362.954559,292.529877 366.534332,289.294739 
	C368.509460,287.509796 370.150787,287.560608 372.121704,289.396179 
	C388.462036,304.614075 400.968781,322.438293 408.606323,343.475708 
	C409.346252,345.513824 409.092529,349.085632 407.762634,350.524139 
	C391.041382,368.610992 389.020020,380.212646 399.872894,402.911621 
	C391.853210,402.911621 384.323669,402.554108 376.858185,403.089478 
	C373.916595,403.300415 371.107178,405.480896 368.258759,406.809875 
	C366.864410,407.460388 365.575714,408.388458 364.131592,408.864288 
	C363.067627,409.214874 361.499786,408.590240 360.721954,409.165222 
	C355.614441,412.940582 351.698334,409.623260 347.669495,407.170349 
	C331.417786,397.275604 319.445923,383.582947 311.273865,366.108093 
	C309.837250,360.750214 308.532257,355.591675 307.608978,350.365662 
	C303.791138,328.755035 304.838226,307.611298 314.276001,286.992889 
z"/>
<path fill="#2D3797" opacity="1.000000" stroke="none" 
	d="
M278.045044,554.651123 
	C278.061218,559.897644 278.061218,564.669189 278.061218,569.758179 
	C269.890442,570.828491 262.699463,568.772400 256.959808,563.400452 
	C255.386322,561.927795 256.077698,558.035217 255.656647,554.668701 
	C252.044128,553.958374 247.409225,553.046997 242.396301,552.009216 
	C238.764114,539.689270 234.631439,527.658813 235.047318,514.515137 
	C240.928635,518.210266 243.894714,524.088867 247.560440,529.343506 
	C251.238037,534.615234 254.754227,539.999451 259.228821,546.654663 
	C260.769318,541.911255 261.796295,538.513672 262.975372,535.169678 
	C265.127502,529.065918 267.263428,522.951172 269.672455,516.947937 
	C270.105774,515.868042 271.768921,514.811707 272.960815,514.690002 
	C273.630890,514.621521 274.938843,516.387085 275.195007,517.502014 
	C275.973450,520.890015 276.664642,524.346191 276.875153,527.807129 
	C277.409241,536.587708 277.662964,545.385315 278.045044,554.651123 
z"/>
<path fill="#313B98" opacity="1.000000" stroke="none" 
	d="
M298.117096,165.754044 
	C294.414673,179.561035 290.782532,192.996964 287.126678,206.426453 
	C286.782196,207.691971 286.643280,209.269943 285.810089,210.106262 
	C277.508667,218.438782 269.081390,226.645905 259.776001,235.785858 
	C261.130493,226.962234 262.932709,219.251587 263.354187,211.466187 
	C263.892548,201.522110 268.629486,193.976013 274.678680,186.720215 
	C279.580414,180.840805 284.124817,174.663452 288.893921,168.287048 
	C288.960114,167.955826 288.871613,168.011658 289.061096,167.928619 
	C289.499756,167.713272 289.695801,167.525513 289.838715,167.282288 
	C292.782379,164.100113 295.726074,160.917938 298.669739,157.735748 
	C299.035797,157.955734 299.401825,158.175720 299.767883,158.395706 
	C299.238892,160.724197 298.709869,163.052704 298.117096,165.754044 
z"/>
<path fill="#2D3796" opacity="1.000000" stroke="none" 
	d="
M440.487122,303.987244 
	C436.685394,298.570831 433.337311,293.153870 429.923035,287.388885 
	C438.506683,285.416656 447.114288,283.502106 455.816376,282.237457 
	C468.356445,280.415039 472.485229,284.842590 470.440338,297.254150 
	C468.788574,307.279602 468.799316,307.198395 458.762268,305.867249 
	C452.842743,305.082214 446.882660,304.603271 440.487122,303.987244 
z"/>
<path fill="#2D3797" opacity="1.000000" stroke="none" 
	d="
M454.372009,331.082336 
	C450.592194,324.261932 447.166626,317.527069 443.613800,310.445160 
	C452.149078,312.202362 460.841095,314.197632 469.442322,316.528107 
	C470.734314,316.878174 472.394623,318.713318 472.529358,320.003052 
	C473.149750,325.942200 473.289886,331.931549 473.670563,339.208771 
	C466.187378,336.032532 460.456787,333.600189 454.372009,331.082336 
z"/>
<path fill="#2E3897" opacity="1.000000" stroke="none" 
	d="
M433.922424,220.921967 
	C421.957001,227.137466 409.801392,233.061050 397.294098,239.101532 
	C400.861908,232.752335 404.561096,226.137131 408.794434,219.883469 
	C410.888519,216.789993 413.782074,214.147873 416.644928,211.686584 
	C420.498596,208.373444 424.239777,209.040222 427.434082,212.935577 
	C429.535767,215.498505 431.633026,218.065079 433.922424,220.921967 
z"/>
<path fill="#2D3797" opacity="1.000000" stroke="none" 
	d="
M464.337799,363.068420 
	C462.042358,356.257355 460.094482,349.515076 458.138702,342.396729 
	C464.501831,345.006256 472.311188,346.650604 476.763641,351.425293 
	C480.003052,354.899139 478.808350,362.507843 479.590546,368.273041 
	C477.704773,368.471039 475.507996,369.380951 473.997009,368.720947 
	C470.707703,367.284119 467.767975,365.047089 464.337799,363.068420 
z"/>
<path fill="#313B99" opacity="1.000000" stroke="none" 
	d="
M239.381851,179.079956 
	C236.321030,189.068665 232.883194,198.941132 229.374847,209.016129 
	C228.543808,198.390793 227.684738,187.407043 226.742188,176.002365 
	C226.658722,169.438095 226.658722,163.294739 226.658722,157.151382 
	C227.449158,157.031464 228.239609,156.911545 229.030045,156.791641 
	C230.767456,161.610245 232.307587,166.513184 234.317474,171.215317 
	C235.492310,173.963806 237.417328,176.391632 239.381851,179.079956 
z"/>
<path fill="#E3E3F0" opacity="1.000000" stroke="none" 
	d="
M289.635071,167.350739 
	C289.695801,167.525513 289.499756,167.713272 289.088806,167.972992 
	C289.021637,167.818909 289.189758,167.591827 289.635071,167.350739 
z"/>
<path fill="#4353A4" opacity="1.000000" stroke="none" 
	d="
M331.720703,245.269165 
	C318.555237,234.940186 305.684753,224.501465 292.589905,213.880737 
	C294.768463,208.823395 299.202332,208.219894 303.696533,208.699722 
	C315.797913,209.991684 323.696136,217.434174 328.368347,227.929230 
	C330.703400,233.174332 330.868896,239.385315 331.720703,245.269165 
z"/>
</svg>